<svg width="16" height="16" viewBox="0 0 16 16" fill="none" xmlns="http://www.w3.org/2000/svg">
<g clip-path="url(#clip0_482_213)">
<path d="M3.99842 13.3333L9.91112 7.42059C10.1751 7.15658 10.3071 7.02457 10.4594 6.97511C10.5932 6.93161 10.7375 6.93161 10.8714 6.97511C11.0236 7.02457 11.1556 7.15658 11.4196 7.42059L14.2689 10.2698M6.9987 5.66634C6.9987 6.40272 6.40174 6.99967 5.66536 6.99967C4.92899 6.99967 4.33203 6.40272 4.33203 5.66634C4.33203 4.92996 4.92899 4.33301 5.66536 4.33301C6.40174 4.33301 6.9987 4.92996 6.9987 5.66634ZM14.6654 7.99967C14.6654 11.6816 11.6806 14.6663 7.9987 14.6663C4.3168 14.6663 1.33203 11.6816 1.33203 7.99967C1.33203 4.31778 4.3168 1.33301 7.9987 1.33301C11.6806 1.33301 14.6654 4.31778 14.6654 7.99967Z" stroke="white" stroke-width="1.33333" stroke-linecap="round" stroke-linejoin="round"/>
</g>
<defs>
<clipPath id="clip0_482_213">
<rect width="16" height="16" fill="white"/>
</clipPath>
</defs>
</svg>
